<?xml version="1.0" standalone="no"?>
<!DOCTYPE svg PUBLIC "-//W3C//DTD SVG 20010904//EN"
 "http://www.w3.org/TR/2001/REC-SVG-20010904/DTD/svg10.dtd">
<svg version="1.0" xmlns="http://www.w3.org/2000/svg"
 width="512.000000pt" height="512.000000pt" viewBox="0 0 512.000000 512.000000"
 preserveAspectRatio="xMidYMid meet">
<metadata>
Created by potrace 1.14, written by Peter Selinger 2001-2017
</metadata>
<g transform="translate(0.000000,512.000000) scale(0.100000,-0.100000)"
fill="#000000" stroke="none">
<path d="M1807 4692 c-13 -14 -17 -38 -17 -100 l0 -82 -53 0 c-31 0 -61 -6
-75 -16 l-22 -15 0 -525 0 -524 -573 0 c-543 0 -575 -1 -590 -18 -16 -17 -17
-135 -17 -1485 l0 -1467 -88 0 c-55 0 -92 -4 -100 -12 -8 -8 -12 -54 -12 -139
0 -121 1 -129 22 -143 20 -14 243 -16 2180 -16 2145 0 2158 0 2178 20 18 18
20 33 20 138 0 152 0 152 -133 152 l-97 0 0 109 0 108 65 16 c239 59 405 266
405 504 0 280 -203 504 -480 529 l-70 7 0 76 c1 56 3 72 11 59 12 -21 59 -24
77 -6 9 9 12 127 12 469 l0 458 -22 15 c-19 14 -78 16 -435 16 l-413 0 0 829
0 830 -22 15 c-14 10 -44 16 -75 16 l-53 0 0 84 c0 64 -4 88 -16 100 -14 14
-100 16 -803 16 -751 0 -789 -1 -804 -18z m1523 -132 l0 -50 -715 0 -715 0 0
50 0 50 715 0 715 0 0 -50z m150 -950 l0 -790 -185 0 c-172 0 -186 -1 -205
-20 -20 -20 -20 -33 -20 -1180 l0 -1160 -150 0 -150 0 0 438 c0 380 -2 440
-16 460 l-15 22 -358 0 c-264 0 -360 -3 -369 -12 -9 -9 -12 -125 -12 -460 l0
-448 -130 0 -130 0 0 1970 0 1970 870 0 870 0 0 -790z m-1840 -1715 l0 -1435
-540 0 -540 0 0 1428 c0 786 3 1432 7 1435 3 4 246 7 540 7 l533 0 0 -1435z
m2050 670 l0 -145 -20 20 c-18 18 -33 20 -133 20 -166 0 -157 13 -157 -226 0
-116 4 -203 10 -215 10 -17 22 -19 140 -19 122 0 130 1 144 22 15 21 16 11 16
-127 0 -138 -1 -148 -16 -127 -14 21 -22 22 -139 22 -99 0 -127 -3 -139 -16
-24 -24 -24 -399 1 -426 14 -15 32 -18 135 -18 105 0 120 2 138 20 l20 20 0
-142 c0 -125 -2 -140 -14 -122 -13 16 -29 19 -131 22 -94 3 -121 1 -140 -12
l-25 -16 0 -203 c0 -145 3 -206 12 -215 8 -8 54 -12 139 -12 121 0 129 1 143
22 15 21 16 13 16 -105 l0 -127 -255 0 -255 0 0 1125 0 1125 255 0 255 0 0
-145z m180 -109 c0 -2 -8 -10 -17 -17 -16 -13 -17 -12 -4 4 13 16 21 21 21 13z
m-290 -226 l0 -130 -50 0 -50 0 0 123 c0 68 3 127 7 130 3 4 26 7 50 7 l43 0
0 -130z m460 -5 l0 -125 -50 0 -50 0 0 125 0 125 50 0 50 0 0 -125z m13 -232
c-35 -2 -91 -2 -125 0 -35 2 -7 3 62 3 69 0 97 -1 63 -3z m-473 -433 l0 -130
-50 0 -50 0 0 130 0 130 50 0 50 0 0 -130z m871 60 c131 -25 252 -119 310
-245 82 -175 25 -395 -131 -510 -250 -184 -602 -48 -666 256 -46 223 101 446
326 495 71 16 95 16 161 4z m-871 -725 l0 -125 -50 0 -50 0 0 125 0 125 50 0
50 0 0 -125z m980 -585 l0 -50 -2100 0 -2100 0 0 50 0 50 2100 0 2100 0 0 -50z"/>
<path d="M2022 4134 c-21 -15 -22 -20 -22 -218 0 -144 3 -205 12 -214 17 -17
259 -17 276 0 9 9 12 70 12 214 0 247 9 234 -150 234 -79 0 -111 -4 -128 -16z
m178 -219 l0 -125 -50 0 -50 0 0 125 0 125 50 0 50 0 0 -125z"/>
<path d="M2482 4134 c-21 -15 -22 -20 -22 -218 0 -144 3 -205 12 -214 17 -17
259 -17 276 0 9 9 12 70 12 214 0 247 9 234 -150 234 -79 0 -111 -4 -128 -16z
m178 -219 l0 -125 -50 0 -50 0 0 125 0 125 50 0 50 0 0 -125z"/>
<path d="M2943 4135 c-23 -16 -23 -20 -23 -211 0 -116 4 -203 10 -215 10 -17
22 -19 138 -19 86 0 132 4 140 12 15 15 17 405 2 428 -14 23 -236 27 -267 5z
m177 -220 l0 -125 -50 0 -50 0 0 125 0 125 50 0 50 0 0 -125z"/>
<path d="M2018 3469 c-16 -9 -18 -30 -18 -214 0 -172 2 -206 16 -219 12 -13
40 -16 134 -16 94 0 122 3 134 16 14 13 16 47 16 219 0 192 -1 205 -19 215
-25 13 -240 13 -263 -1z m182 -219 l0 -130 -50 0 -50 0 0 130 0 130 50 0 50 0
0 -130z"/>
<path d="M2476 3464 c-14 -13 -16 -47 -16 -213 0 -245 -9 -231 149 -231 62 0
121 5 132 10 18 10 19 23 19 218 0 149 -3 211 -12 220 -8 8 -53 12 -134 12
-98 0 -126 -3 -138 -16z m184 -214 l0 -130 -50 0 -50 0 0 130 0 130 50 0 50 0
0 -130z"/>
<path d="M2936 3464 c-14 -13 -16 -47 -16 -213 0 -245 -9 -231 149 -231 62 0
121 5 132 10 18 10 19 23 19 218 0 149 -3 211 -12 220 -8 8 -53 12 -134 12
-98 0 -126 -3 -138 -16z m184 -214 l0 -130 -50 0 -50 0 0 130 0 130 50 0 50 0
0 -130z"/>
<path d="M2012 2798 c-17 -17 -17 -409 0 -426 17 -17 259 -17 276 0 17 17 17
409 0 426 -8 8 -53 12 -138 12 -85 0 -130 -4 -138 -12z m188 -213 l0 -125 -50
0 -50 0 0 125 0 125 50 0 50 0 0 -125z"/>
<path d="M2472 2798 c-17 -17 -17 -409 0 -426 17 -17 259 -17 276 0 17 17 17
409 0 426 -8 8 -53 12 -138 12 -85 0 -130 -4 -138 -12z m188 -213 l0 -125 -50
0 -50 0 0 125 0 125 50 0 50 0 0 -125z"/>
<path d="M2016 2134 c-14 -13 -16 -47 -16 -214 0 -167 2 -201 16 -214 12 -13
39 -16 130 -16 64 0 124 5 135 10 18 10 19 23 19 220 0 197 -1 210 -19 220
-11 5 -71 10 -135 10 -91 0 -118 -3 -130 -16z m184 -214 l0 -130 -50 0 -50 0
0 130 0 130 50 0 50 0 0 -130z"/>
<path d="M2476 2134 c-14 -13 -16 -47 -16 -214 0 -167 2 -201 16 -214 12 -13
39 -16 130 -16 64 0 124 5 135 10 18 10 19 23 19 220 0 197 -1 210 -19 220
-11 5 -71 10 -135 10 -91 0 -118 -3 -130 -16z m184 -214 l0 -130 -50 0 -50 0
0 130 0 130 50 0 50 0 0 -130z"/>
<path d="M732 3108 c-9 -9 -12 -70 -12 -214 0 -247 -9 -234 150 -234 159 0
150 -13 150 234 0 144 -3 205 -12 214 -8 8 -53 12 -138 12 -85 0 -130 -4 -138
-12z m188 -218 l0 -130 -50 0 -50 0 0 130 0 130 50 0 50 0 0 -130z"/>
<path d="M1192 3108 c-9 -9 -12 -70 -12 -214 0 -247 -9 -234 150 -234 159 0
150 -13 150 234 0 144 -3 205 -12 214 -8 8 -53 12 -138 12 -85 0 -130 -4 -138
-12z m188 -218 l0 -130 -50 0 -50 0 0 130 0 130 50 0 50 0 0 -130z"/>
<path d="M742 2444 c-21 -15 -22 -20 -22 -218 0 -144 3 -205 12 -214 17 -17
259 -17 276 0 9 9 12 70 12 214 0 247 9 234 -150 234 -79 0 -111 -4 -128 -16z
m178 -214 l0 -130 -50 0 -50 0 0 130 0 130 50 0 50 0 0 -130z"/>
<path d="M1202 2444 c-21 -15 -22 -20 -22 -218 0 -144 3 -205 12 -214 17 -17
259 -17 276 0 9 9 12 70 12 214 0 247 9 234 -150 234 -79 0 -111 -4 -128 -16z
m178 -214 l0 -130 -50 0 -50 0 0 130 0 130 50 0 50 0 0 -130z"/>
<path d="M738 1779 c-16 -9 -18 -30 -18 -213 0 -251 -10 -236 153 -236 92 0
119 3 131 16 14 13 16 47 16 218 0 144 -3 205 -12 214 -15 15 -245 16 -270 1z
m182 -219 l0 -130 -50 0 -50 0 0 130 0 130 50 0 50 0 0 -130z"/>
<path d="M1196 1774 c-14 -13 -16 -47 -16 -213 0 -246 -10 -231 153 -231 92 0
119 3 131 16 14 13 16 47 16 218 0 144 -3 205 -12 214 -8 8 -53 12 -134 12
-98 0 -126 -3 -138 -16z m184 -214 l0 -130 -50 0 -50 0 0 130 0 130 50 0 50 0
0 -130z"/>
<path d="M750 1118 l-25 -14 -3 -203 c-2 -142 1 -208 9 -217 15 -19 259 -20
277 -2 9 9 12 70 12 214 0 175 -2 203 -17 215 -23 20 -219 24 -253 7z m170
-223 l0 -125 -50 0 -50 0 0 125 0 125 50 0 50 0 0 -125z"/>
<path d="M1210 1118 l-25 -14 -3 -203 c-2 -142 1 -208 9 -217 15 -19 259 -20
277 -2 9 9 12 70 12 214 0 175 -2 203 -17 215 -23 20 -219 24 -253 7z m170
-223 l0 -125 -50 0 -50 0 0 125 0 125 50 0 50 0 0 -125z"/>
</g>
</svg>
